HIERARCHY
ROOT Hips
{
	OFFSET 0.00000 0.00000 0.00000
	CHANNELS 6 Xposition Yposition Zposition Yrotation Zrotation Xrotation 
	JOINT Lumbar
	{
		OFFSET 0 0 0
		CHANNELS 3 Zrotation Xrotation Yrotation
		JOINT Neck
		{
			OFFSET 0.00 0.2701 0.00
			CHANNELS 3 Zrotation Xrotation Yrotation
			End Site
			{
				OFFSET 0.00 0.1379 0.00
			}
		}
		JOINT RightShoulder
		{
			OFFSET 0.0119 0.2289 0.1181
			CHANNELS 3 Zrotation Xrotation Yrotation
			JOINT RightElbow
			{
				OFFSET 0.00 -0.1475 0.00
				CHANNELS 2 Zrotation Yrotation
				JOINT RightWrist
				{
					OFFSET 0.00 -0.1605 0.00
					CHANNELS 2 Zrotation Xrotation
					End Site
					{
						OFFSET 0.0040 -0.1068 0.0006
					}
				}
			}
		}
		JOINT LeftShoulder
		{
			OFFSET 0.0119 0.2289 -0.1181
			CHANNELS 3 Zrotation Xrotation Yrotation
			JOINT LeftElbow
			{
				OFFSET 0.00 -0.1475 0.00
				CHANNELS 2 Zrotation Yrotation
				JOINT LeftWrist
				{
					OFFSET 0.00 -0.1605 0.00
					CHANNELS 2 Zrotation Xrotation
					End Site
					{
						OFFSET 0.0040 -0.1068 -0.0006
					}
				}
			}
		}
	}
	JOINT RightHip
	{
		OFFSET 0.0316 -0.0424 0.0458
		CHANNELS 3 Zrotation Xrotation Yrotation
		JOINT RightKnee
		{
			OFFSET 0.00 -0.2438 0.00
			CHANNELS 1 Zrotation
			JOINT RightAnkle
			{
				OFFSET 0.00 -0.2449 0.00
				CHANNELS 3 Zrotation Xrotation Yrotation
				End Site
				{
					OFFSET 0.1237 -0.0542 0.0051
				}
			}
		}
	}
	JOINT LeftHip
	{
		OFFSET 0.0316 -0.0424 -0.0458
		CHANNELS 3 Zrotation Xrotation Yrotation
		JOINT LeftKnee
		{
			OFFSET 0.00 -0.2438 0.00
			CHANNELS 1 Zrotation
			JOINT LeftAnkle
			{
				OFFSET 0.00 -0.2449 0.00
				CHANNELS 3 Zrotation Xrotation Yrotation
				End Site
				{
					OFFSET 0.1237 -0.0542 -0.0051
				}
			}
		}
	}
}
MOTION
Frames: 13
Frame Time: 0.02
0.36484 -0.6315 -0.01957 -184.74809 50.76764 6.68504 20.97915 6.59799 0.30652 -60.90957 -3.38039 -2.11994 -62.56693 16.21465 -76.05358 111.12864 124.49558 82.84944 -21.88187 -62.32934 -15.75318 67.36164 91.70756 -96.44865 33.63983 1.24493 46.0381 -9.58852 -14.45481 -0.48032 -43.3677 -5.70196 -12.41096 44.31859 4.1063 21.07634 -0.47741 -30.66158 -11.87214 -3.62804
0.36481 -0.63157 -0.01987 -184.96234 50.67047 6.90957 21.03903 6.59717 0.446 -60.96847 -3.61744 -2.11994 -62.56693 16.21465 -75.94525 111.15208 124.4638 82.84944 -21.88187 -62.3172 -15.65057 67.34257 91.65274 -96.58208 33.64999 1.24327 46.14175 -9.43835 -14.31355 -0.48016 -42.77723 -6.35174 -12.26837 44.36522 4.14674 21.10653 -0.47768 -30.70726 -12.1605 -3.74681
0.36477 -0.63168 -0.02019 -185.19003 50.65667 7.11875 21.01024 6.60898 0.57167 -61.01226 -3.83979 -2.11994 -62.56693 16.21465 -75.81979 111.17765 124.42811 82.84944 -21.88188 -62.31521 -15.54458 67.32123 91.60882 -96.74301 33.68399 1.23684 46.1438 -9.26311 -14.21902 -0.48028 -42.04501 -7.14151 -12.10362 44.31463 4.21412 21.2037 -0.47751 -30.68693 -12.46157 -3.89515
0.36474 -0.63177 -0.02049 -185.40875 50.60024 7.33508 21.02717 6.61315 0.70403 -61.06076 -4.06551 -2.11994 -62.56693 16.21465 -75.70681 111.20237 124.39338 82.84944 -21.88189 -62.30841 -15.44096 67.30321 91.56019 -96.88694 33.70884 1.23302 46.19479 -9.10331 -14.08807 -0.47996 -41.38972 -7.87075 -11.96125 44.31448 4.26835 21.27635 -0.47754 -30.70178 -12.75145 -4.02905
0.36472 -0.63189 -0.02082 -185.64259 50.55707 7.55485 21.02761 6.62435 0.83774 -61.11929 -4.30564 -2.11994 -62.56693 16.21465 -75.57328 111.22536 124.36156 82.84944 -21.8819 -62.3021 -15.33295 67.27625 91.50955 -97.04981 33.72768 1.22773 46.24126 -8.9252 -14.01508 -0.4809 -40.67897 -8.59336 -11.7679 44.29593 4.32706 21.31622 -0.47759 -30.6985 -13.06399 -4.16519
0.36466 -0.63196 -0.0211 -185.8461 50.50915 7.76107 21.03857 6.62475 0.96343 -61.15309 -4.51199 -2.11994 -62.56693 16.21465 -75.47918 111.25334 124.32307 82.84944 -21.88191 -62.29726 -15.23367 67.26674 91.46586 -97.17978 33.76407 1.22425 46.2702 -8.78019 -13.83735 -0.47935 -40.05228 -9.35582 -11.67341 44.28934 4.38236 21.44112 -0.4775 -30.71534 -13.33119 -4.3032
0.36443 -0.63189 -0.02123 -185.97371 50.42193 7.9478 21.10378 6.58651 1.07964 -61.12106 -4.62985 -2.11994 -62.56693 16.21465 -75.49279 111.28961 124.26558 82.84944 -21.88192 -62.2946 -15.15886 67.31059 91.44122 -97.21183 33.84528 1.22661 46.27613 -8.72691 -13.32719 -0.47026 -39.67788 -10.25347 -11.87868 44.34175 4.42473 21.81123 -0.47709 -30.81043 -13.48555 -4.45478
0.36414 -0.63178 -0.02131 -186.06827 50.32902 8.11859 21.18102 6.53807 1.18633 -61.0648 -4.7139 -2.11994 -62.56693 16.21465 -75.54748 111.33178 124.20185 82.84944 -21.88192 -62.29292 -15.09325 67.37128 91.42295 -97.20972 33.94263 1.23095 46.26679 -8.70878 -12.71602 -0.45874 -39.3959 -11.17579 -12.18068 44.40798 4.46224 22.26124 -0.47656 -30.92636 -13.59139 -4.60492
0.36389 -0.6317 -0.0214 -186.17002 50.24339 8.28667 21.24969 6.49814 1.29077 -61.02022 -4.81265 -2.11994 -62.56693 16.21465 -75.58724 111.37479 124.14201 82.84944 -21.88193 -62.2906 -15.02375 67.42102 91.40022 -97.22365 34.03119 1.23457 46.26309 -8.6787 -12.17291 -0.44872 -39.08123 -12.04688 -12.42418 44.4654 4.49975 22.65834 -0.47612 -31.02805 -13.70925 -4.74581
0.36361 -0.6316 -0.02153 -186.30415 50.14072 8.49535 21.32883 6.4424 1.42195 -60.97207 -4.91387 -2.11994 -62.56693 16.21465 -75.61164 111.40347 124.07752 82.84944 -21.88194 -62.28987 -14.95254 67.48414 91.38425 -97.23702 34.12735 1.23732 46.26151 -8.63159 -11.53947 -0.43707 -38.72206 -13.08918 -12.72705 44.53048 4.54704 23.12695 -0.47554 -31.14773 -13.86897 -4.92901
0.36337 -0.63152 -0.02158 -186.36429 50.07114 8.61703 21.38972 6.41686 1.49611 -60.92611 -5.0019 -2.11994 -62.56693 16.21465 -75.67672 111.46275 124.02133 82.84944 -21.88195 -62.28543 -14.88758 67.52401 91.35585 -97.24226 34.21043 1.24236 46.25314 -8.62759 -11.06755 -0.42822 -38.47966 -13.78223 -12.93106 44.58383 4.57306 23.46564 -0.47523 -31.23561 -13.93093 -5.02395
0.36322 -0.63154 -0.02145 -186.21509 50.09401 8.49235 21.40144 6.47811 1.40827 -60.88908 -5.06369 -2.11994 -62.56693 16.21465 -75.85522 111.6106 123.98946 82.84944 -21.88196 -62.27502 -14.83359 67.49041 91.28938 -97.24051 34.26029 1.2537 46.23057 -8.74316 -11.08361 -0.42769 -38.53532 -13.47426 -12.8248 44.60426 4.53593 23.41898 -0.47575 -31.23186 -13.72541 -4.87068
0.36311 -0.63158 -0.02125 -185.99486 50.14989 8.28265 21.39424 6.56965 1.26466 -60.85555 -5.11325 -2.11994 -62.56693 16.21465 -76.07123 111.78805 123.9663 82.84944 -21.88197 -62.26021 -14.78633 67.43374 91.21061 -97.23048 34.2953 1.26719 46.20222 -8.89944 -11.26207 -0.43003 -38.70623 -12.81824 -12.61806 44.61248 4.47836 23.24014 -0.47654 -31.19555 -13.42494 -4.62962
